<svg height="500pt" preserveAspectRatio="xMidYMid meet" viewBox="0 0 500 500" width="500pt" xmlns="http://www.w3.org/2000/svg"><g transform="matrix(.1 0 0 -.1 0 500)"><path d="m2571 4842c-21-7-57-38-157-137-286-281-465-441-642-573-12-9-55-50-95-90s-89-84-109-98c-21-15-35-31-31-37 3-6 1-7-6-3-7 5-23-5-40-23l-29-31-124 5c-67 3-148 8-178 11-30 4-80 8-110 10-30 1-55 3-55 4 0 2-57 8-130 14-33 3-60 5-60 6s-16 3-35 5-57 7-85 10c-137 17-198 23-275 30-30 2-76 8-102 13-34 7-48 6-48-2s-2-8-8 0c-4 6-14 11-22 12-8 0-42 3-75 7-110 12-125 7-125-45 0-38 37-113 51-104 8 5 9 3 4-5-9-15 14-63 27-55 5 3 7 2 6-3-3-11 34-73 44-73 4 0 8-6 9-12 0-7 18-28 41-45 22-18 37-33 34-33s2-8 11-18c10-11 22-17 27-14s6 1 3-5c-7-11 148-175 213-225 76-58 245-136 370-170 55-14 42-12 125-27 39-7 81-17 95-22s41-11 60-13c55-6 100-18 106-27 3-5 0-26-7-47-7-20-14-39-14-42-4-22-21-61-38-90-12-19-23-39-24-45-1-5-9-30-18-54-19-53-13-112 20-186 17-39 26-96 26-167 0-54-4-65-60-150-33-51-66-100-74-108-32-34-76-103-71-111 3-5 1-9-3-9-9 0-43-68-43-85 0-5-9-19-21-31-11-12-21-30-22-42 0-11-6-18-12-16-16 6-57-81-57-119 0-51 31-117 61-129 33-13 120-39 146-43 11-2 20-4 20-5s12-3 27-4c14 0 35-11 46-24l20-23-25-45c-16-28-22-49-16-53 6-3 10-37 9-76-1-38 5-81 11-95 7-14 13-34 13-45 0-14 3-16 9-7 6 10 12 7 25-13 9-14 21-23 26-20 6 4 10 1 10-4 0-6 6-11 14-11 23 0 31-22 12-32-9-5-16-16-16-24s-4-13-9-10-12-4-16-17c-10-32-13-67-5-67 14 0 28-49 25-86-3-25 3-54 17-82 14-30 19-54 15-78-3-19-4-34-2-34 17 0 55 27 65 46 20 37 27 20 19-43-13-93-6-206 14-236 10-15 13-27 8-27-14 0-1-62 17-83 9-10 22-15 29-13 7 3 13-1 13-9s5-15 10-15c6 0 10-6 10-13 0-12 12-20 80-53 19-9 38-21 41-26 4-6 26-11 50-13 24-1 46-4 49-5 3-2 17-4 31-4 18-1 25 3 22 11-7 18 2 16 21-3 9-8 31-16 50-17s32-5 30-9c-5-7 18-22 61-38 23-9 26-8 21 5-4 13 0 11 20-4 17-13 41-21 65-21 21 0 49-4 62-9 14-6 28-7 31-3 10 9 56 10 56 1 0-4 18-7 40-7s40 4 40 9 7 5 17 2c10-4 14-2 10 4s4 13 18 15c15 3 25 1 25-7 0-6 10-11 23-9 12 1 22 3 22 4s13 4 30 6c34 4 92 25 162 59 26 12 49 19 51 14s14-2 27 7c12 8 35 17 49 19 50 9 71 13 111 21 38 7 39 6 25-12-12-14-9-14 14 4 16 12 37 22 47 22 11 0 19 5 19 10 0 6 8 10 18 10s26 6 37 13c11 8 32 13 47 12s25 2 22 7c-3 4-10 5-16 2-6-4-8-3-5 3 4 6 18 9 32 8 14-2 25 2 25 8 0 5 3 7 6 4 4-3 16-1 28 5 11 7 28 13 36 14 26 4 134 36 145 42 6 4 15 7 20 8 6 1 64 19 130 40s123 37 128 36c4-1 7 2 7 6s12 9 28 10c15 1 37 6 50 12 12 5 34 15 50 22 15 7 38 20 52 29 27 17 45 17 125-1 91-20 231 10 258 55 4 8 19 11 38 8 33-5 89 13 89 28 0 19 61 47 94 42 42-5 136 21 173 50 25 19 26 19 13 2-29-38-38-44-83-56-44-11-66-32-47-44 17-10 103-18 97-9-3 5 14 9 37 9 64 0 151 63 190 138 20 37 35 56 44 52 26-10 61 43 100 152 16 43 27 90 26 103-4 24-3 24 26-7 16-18 32-33 34-33 5 0-8 56-21 90-5 14-8 37-7 52 2 16-1 28-7 28-5 0-9 6-9 14 0 9 9 14 20 13s20-4 20-8 8-9 18-13c9-3 23-9 30-12 23-11 12 18-20 50-67 67-113 130-130 175-23 59-22 71 2 71 34 0 22 20-58 99-120 117-132 136-146 241-2 14-7 44-11 66-6 37-2 53 46 152 47 95 60 114 96 135 34 21 41 23 36 9-3-9 4-3 15 13 11 17 34 43 51 59 27 26 31 28 32 10 0-13 4-10 12 11 7 17 23 52 36 79 31 66 26 152-14 220-15 25-31 46-35 46-5 0-12 9-15 20-4 11-10 18-14 16-8-5-7 36 2 51 4 5 4 13 0 17-4 3-8 41-10 84-6 158-69 496-110 592-3 8-7 18-8 23-2 4-3 8-5 10-1 1-3 9-5 18-12 62-122 263-172 315-13 13-23 26-23 28 0 10-68 95-72 91-2-2-5 6-5 18-1 12-7 23-13 25-5 2-10 10-10 17s-18 29-40 49-40 40-40 46c0 5-5 10-10 10-6 0-22 25-37 55-18 36-32 54-41 50-7-3-10 0-7 6 9 13-73 88-105 96-14 3-39 16-56 29s-34 20-38 17c-3-4-6 0-6 8 0 19-29 36-57 34-13-1-23 1-23 4 0 4-11 8-25 9-34 3-105 44-105 60 0 23-33 86-58 111-35 35-142 74-209 75-17 1-29 4-26 9 2 4-12 8-31 9-56 2-61 3-66 10-3 3-23 8-45 10s-42 6-45 9c-3 4-21 8-40 10s-39 6-45 10c-5 4-46 9-90 13-45 3-94 10-110 16-38 12-158 26-224 26-28-1-51 2-51 6s-8 7-17 6c-18 0-105 8-153 15-14 2-31 2-39-1zm-1045-4529c-6-6-36 9-36 18 0 5 9 4 20-3 10-7 18-14 16-15z"/><path d="m4860 2313c0-10 4-24 9-32 6-9 8-4 7 18-1 32-16 45-16 14z"/></g></svg>